Coordinates
version=1
nRows=24
nColumns=24
inDegrees=yes

Units are S.I. units (second, meters, Newtons, ...)
Angles are in degrees.

endheader
time	pelvis_tilt	pelvis_list	pelvis_rotation	pelvis_tx	pelvis_ty	pelvis_tz	hip_flexion_r	hip_adduction_r	hip_rotation_r	knee_angle_r	ankle_angle_r	subtalar_angle_r	mtp_angle_r	hip_flexion_l	hip_adduction_l	hip_rotation_l	knee_angle_l	ankle_angle_l	subtalar_angle_l	mtp_angle_l	lumbar_extension	lumbar_bending	lumbar_rotation
      0.57600000	     -0.84384241	      6.91505986	      4.09942086	     -0.89283414	      0.99248341	      0.27305906	     23.66421003	     -8.37274534	    -11.09516373	      5.01599385	     -0.18969759	     -5.68634532	     -0.58780804	    -13.09888228	      7.74706533	     -3.55506304	     -5.01174976	     10.50472192	     -5.44509046	     -0.00022881	    -11.96154260	     -7.32423089	     -1.81108979
      0.58016667	     -0.49691646	      6.77755465	      4.29701615	     -0.88712431	      0.99241079	      0.27289820	     23.34896131	     -8.31026683	    -11.12489024	      4.45920245	     -0.24544421	     -5.99946113	     -1.24810166	    -13.66590997	      7.47024839	     -3.39264436	     -5.32215858	     10.65998851	     -5.28365054	     -0.16819050	    -12.35691272	     -7.00918598	     -2.14283067
      0.58433333	     -0.38293670	      6.71080440	      4.40717588	     -0.88138406	      0.99193716	      0.27290364	     23.35442604	     -8.29201900	    -10.96429396	      3.77688006	     -0.36418972	     -6.39575884	     -1.34749265	    -13.98496925	      7.31390790	     -3.20726474	     -5.64289663	     10.78240256	     -5.33728255	     -0.19158021	    -12.46891511	     -6.83257952	     -2.19701476
      0.58850000	     -0.12429694	      6.59782800	      4.52889681	     -0.87561382	      0.99175460	      0.27293841	     23.16334363	     -8.21542691	    -10.88907823	      3.12861029	     -0.57295940	     -6.82741526	     -1.50693252	    -14.42967273	      7.07984653	     -3.09640279	     -6.00619651	     10.84415735	     -5.32101147	     -0.22467607	    -12.74718901	     -6.57787860	     -2.37763759
      0.59266667	      0.14716047	      6.46952797	      4.66517358	     -0.86979036	      0.99164095	      0.27295792	     22.93827646	     -8.12465939	    -10.85170809	      2.47714466	     -0.80088656	     -7.22834168	     -1.63145834	    -14.88424385	      6.82138561	     -2.93960814	     -6.37545731	     10.90885631	     -5.29886041	     -0.24382737	    -13.03255650	     -6.29980087	     -2.51365000
      0.59683333	      0.58235291	      6.26971254	      4.76342863	     -0.86382798	      0.99181824	      0.27298383	     22.49347592	     -7.93590954	    -10.88414035	      1.88590563	     -1.08596700	     -7.51978692	     -1.80668923	    -15.52892447	      6.47880221	     -2.82347301	     -6.71072806	     10.97513497	     -5.26294738	     -0.25811743	    -13.48173415	     -5.91197426	     -2.70551116
      0.60100000	      0.85460679	      6.12794222	      4.89428326	     -0.85795702	      0.99179063	      0.27308095	     22.24115950	     -7.81473544	    -10.86700300	      1.25036997	     -1.44422061	     -7.95540333	     -1.90904839	    -15.94280111	      6.19636343	     -2.67402030	     -7.15749358	     10.99399870	     -5.25509658	     -0.24356498	    -13.76131094	     -5.62236368	     -2.84974598
      0.60516667	      1.15786734	      5.97544877	      4.98123009	     -0.85202444	      0.99184167	      0.27328497	     21.94330195	     -7.65581286	    -10.83061649	      0.64419452	     -1.88038824	     -8.39765322	     -1.96327159	    -16.38157138	      5.90471215	     -2.58318214	     -7.60885909	     10.98320480	     -5.22461400	     -0.20237451	    -14.06734801	     -5.32680041	     -2.95655090
      0.60933333	      1.28886530	      5.86318434	      5.08686943	     -0.84608724	      0.99167971	      0.27348953	     21.83847831	     -7.55169257	    -10.76798244	      0.01479385	     -2.37901466	     -8.87233891	     -1.97280329	    -16.60942372	      5.67079279	     -2.43078256	     -8.12626603	     10.95608004	     -5.26960059	     -0.18139310	    -14.17246997	     -5.09816272	     -2.96525268
      0.61350000	      1.62050210	      5.67140485	      5.15974247	     -0.84004925	      0.99188565	      0.27382866	     21.46339744	     -7.32522417	    -10.75180949	     -0.51332499	     -2.94267343	     -9.41408992	     -1.95286501	    -17.03530201	      5.32167548	     -2.42205187	     -8.64990970	     10.83332450	     -5.17646334	     -0.10835690	    -14.49611165	     -4.77195152	     -3.11914798
      0.61766667	      2.00295655	      5.47885268	      5.18846334	     -0.83403340	      0.99219628	      0.27416591	     21.02810732	     -7.08501937	    -10.74046027	     -1.00345525	     -3.61520364	     -9.84430286	     -1.87160814	    -17.50350119	      4.98801433	     -2.41214042	     -9.20000597	     10.77567686	     -5.15172800	      0.04572432	    -14.87541171	     -4.41957789	     -3.19199193
      0.62183333	      2.09620624	      5.34257273	      5.24277592	     -0.82797653	      0.99214500	      0.27451804	     20.92012569	     -6.92787725	    -10.69293799	     -1.53094566	     -4.35373312	    -10.30196488	     -1.85208582	    -17.62930501	      4.74300468	     -2.31250700	     -9.82495386	     10.62972247	     -5.25786031	      0.09066801	    -14.92459538	     -4.19127154	     -3.16824838
      0.62600000	      1.25730128	      5.11251122	      4.66173651	     -0.82018144	      0.99053081	      0.27583090	     21.92411938	     -6.47724796	     -9.86354750	     -2.17960377	     -5.00014400	    -10.95613997	     -1.68547682	    -16.94281297	      4.66433009	     -3.07833767	    -10.26687145	     10.37429752	     -5.11908983	      0.33652844	    -13.66824418	     -4.09888162	     -2.66072604
      0.63016667	      1.34664060	      4.99857520	      4.68876713	     -0.81426370	      0.99059882	      0.27626174	     21.81752146	     -6.33739317	     -9.80819970	     -2.68069287	     -5.80670185	    -11.38965629	     -1.66054743	    -16.98423445	      4.45304932	     -2.99610538	    -11.02790132	     10.17521133	     -5.27132304	      0.39743822	    -13.73182062	     -3.89752859	     -2.62726986
      0.63433333	      1.57550363	      4.80804764	      4.63759717	     -0.80819897	      0.99091791	      0.27694904	     21.53179547	     -6.06309199	     -9.70009422	     -3.12120027	     -6.56805994	    -11.97787701	     -1.50624601	    -17.16664855	      4.14443158	     -3.13130707	    -11.79049024	      9.91312776	     -5.24624464	      0.68334488	    -13.94458251	     -3.61689932	     -2.64295842
      0.63850000	      1.66175842	      4.63989362	      4.62527449	     -0.80210648	      0.99111077	      0.27749747	     21.38945715	     -5.84765779	     -9.64337940	     -3.56089025	     -7.32508555	    -12.45551099	     -1.43151993	    -17.16089277	      3.88067915	     -3.15236690	    -12.62468168	      9.57431168	     -5.40008440	      0.84037792	    -13.97753408	     -3.35987423	     -2.59031738
      0.64266667	      1.77254023	      4.44910123	      4.54422447	     -0.79595258	      0.99137609	      0.27821087	     21.22141763	     -5.57934101	     -9.54204981	     -3.98673732	     -8.08836872	    -12.92766002	     -1.34553480	    -17.16048507	      3.60076258	     -3.29263654	    -13.49703086	      9.20932346	     -5.49592742	      1.03263100	    -14.03686917	     -3.09985420	     -2.53073294
      0.64683333	      1.89119597	      4.24101754	      4.41633826	     -0.78974540	      0.99169426	      0.27901097	     21.04136965	     -5.27799938	     -9.41772067	     -4.40265492	     -8.82113818	    -13.37024385	     -1.24692599	    -17.14608689	      3.31082757	     -3.51512447	    -14.41229272	      8.80461546	     -5.57513585	      1.27298148	    -14.09340258	     -2.82585976	     -2.41160675
      0.65100000	      2.05407047	      3.98998214	      4.09641559	     -0.78341101	      0.99203435	      0.28026546	     20.84173488	     -4.85115967	     -9.11070631	     -4.82980979	     -9.48346017	    -13.74265009	     -0.85751488	    -17.17491771	      2.99535890	     -4.04777894	    -15.34274462	      8.35182842	     -5.46283822	      2.28659320	    -14.18871628	     -2.56477980	     -2.06259069
      0.65516667	      2.11043461	      3.79427260	      4.02339325	     -0.77725566	      0.99241962	      0.28092426	     20.70762636	     -4.60298445	     -9.06757921	     -5.24330724	    -10.13283617	    -14.11656173	     -0.77308783	    -17.00730589	      2.72234018	     -4.15589473	    -16.40700030	      7.84718460	     -5.73679192	      2.57727537	    -14.18771944	     -2.30503056	     -1.99805265
      0.65933333	      2.08357260	      3.58532951	      3.66815311	     -0.77092948	      0.99256023	      0.28224129	     20.74188537	     -4.23076955	     -8.71291270	     -5.75101608	    -10.66253315	    -14.45775666	      1.10852677	    -16.75666267	      2.47830590	     -4.70211981	    -17.47106349	      7.21927646	     -5.90722485	      9.96302239	    -14.06050602	     -2.10646810	     -1.75490156
      0.66350000	      2.18071502	      3.31807413	      3.53021169	     -0.76459323	      0.99312636	      0.28295112	     20.53071252	     -3.90241663	     -8.70951587	     -6.13171208	    -11.12974991	    -14.49591091	      1.09877213	    -16.59212030	      2.13529645	     -4.95505733	    -18.59851528	      6.54255604	     -6.14801126	      9.98404799	    -14.07469932	     -1.75799114	     -1.61679856
      0.66766667	      2.34026366	      3.03896333	      3.26248770	     -0.75831801	      0.99374068	      0.28403787	     20.28571965	     -3.49490582	     -8.53924365	     -6.53836661	    -11.63337226	    -14.79407011	      1.07410034	    -16.46316951	      1.77855922	     -5.42331288	    -19.79036683	      5.90521396	     -6.25043283	     10.10261156	    -14.18346885	     -1.44356345	     -1.28638914
      0.67183333	      2.42041691	      2.75929677	      2.92846151	     -0.75198323	      0.99424458	      0.28526754	     20.13946608	     -3.07314363	     -8.30064949	     -6.98354967	    -11.97304177	    -14.89551575	      1.03972786	    -16.22493324	      1.43428394	     -5.96811799	    -21.02962103	      5.17829475	     -6.40394579	     10.30470281	    -14.18542399	     -1.16362056	     -0.92824947
